<?xml version="1.0" encoding="utf-8"?>
<!-- Generator: Adobe Illustrator 25.4.1, SVG Export Plug-In . SVG Version: 6.00 Build 0)  -->
<svg version="1.1" id="Layer_1" xmlns="http://www.w3.org/2000/svg" xmlns:xlink="http://www.w3.org/1999/xlink" x="0px" y="0px"
	 viewBox="0 0 612 792" style="enable-background:new 0 0 612 792;" xml:space="preserve">
<style type="text/css">
	.st0{fill:#00ADB5;}
</style>
<g>
	<path class="st0" d="M326.85,355.46c0.11,0.2,0.22,0.41,0.32,0.62l0.16-0.2c1.66-2.14,3.42-3.75,5.23-4.79
		c1.7-0.97,3.54-1.63,5.47-1.95v-0.99c-1.79,0.15-4.27,0.23-7.37,0.23c-3.35,0-6.72-0.08-10.05-0.25v0.96
		c3.76,0.17,5.66,1.42,5.66,3.71c0,0.43-0.09,0.91-0.23,1.43c0.1,0.14,0.21,0.27,0.31,0.42
		C326.51,354.91,326.68,355.18,326.85,355.46z"/>
	<path class="st0" d="M326.42,407.78c-0.08,0.06-0.17,0.11-0.26,0.17c0.06,0.21,0.09,0.42,0.09,0.61c0,0.56-0.22,1.31-1.28,1.77
		c-0.67,0.29-1.62,0.47-2.91,0.55v0.97c2.83-0.16,5.85-0.24,8.98-0.24c4.16,0,7.68,0.08,10.49,0.24v-1.04
		c-1.74-0.45-3.24-1.11-4.45-1.94c-1.29-0.89-2.47-2.14-3.5-3.73l-2.17-3.04c-0.25,0.47-0.51,0.94-0.81,1.39
		C329.51,405.14,328.11,406.57,326.42,407.78z"/>
	<path class="st0" d="M286.55,411.83L286.55,411.83c0.26-0.01,0.54-0.02,0.82-0.04c-0.2,0.01-0.41,0.01-0.6,0.02
		C286.7,411.82,286.62,411.82,286.55,411.83z"/>
	<path class="st0" d="M308.01,379.4h-4.13c0.72,0.12,1.37,0.27,1.9,0.47c0.97,0.36,1.95,1.02,2.89,1.95
		c0.92,0.91,2.02,2.33,3.24,4.22l10.67,16.1c1.04-2.24,1.57-4.96,1.57-8.17c0-0.76-0.05-1.49-0.11-2.19l-7.95-11.15
		C313.89,379.82,311.2,379.4,308.01,379.4z"/>
	<path class="st0" d="M312.42,375.47l-0.19-0.26l0.2-0.25l7.27-9.31c0.05-0.55,0.09-1.12,0.1-1.7l-7.05,9
		c-2.02,2.58-4.63,4.22-7.78,4.91h1.54c1.85,0,3.49-0.19,4.92-0.57c0.48-0.13,0.93-0.27,1.36-0.44c0.16-0.06,0.31-0.14,0.46-0.21
		L312.42,375.47z"/>
	<path class="st0" d="M312.23,375.21l0.19,0.26l0.83,1.17c0.13-0.06,0.27-0.12,0.4-0.18l-0.88-1.23l6.84-8.77
		c0.03-0.26,0.06-0.53,0.08-0.8l-7.27,9.31L312.23,375.21z"/>
	<path class="st0" d="M314.79,378.04l-0.05-0.06v0.06C314.76,378.03,314.76,378.04,314.79,378.04z"/>
	<path class="st0" d="M314.79,378.04l-0.05-0.06v0.06C314.76,378.03,314.76,378.04,314.79,378.04z"/>
	<path class="st0" d="M337.32,408.51c-1.25-0.86-2.38-2.06-3.39-3.61l-2.31-3.24c-0.07,0.14-0.14,0.29-0.22,0.43l2.17,3.04
		c1.03,1.58,2.21,2.84,3.5,3.73c1.21,0.84,2.71,1.49,4.45,1.94v1.04c-2.81-0.16-6.33-0.24-10.49-0.24c-3.12,0-6.14,0.08-8.98,0.24
		v-0.97c1.28-0.08,2.24-0.26,2.91-0.55c1.06-0.46,1.28-1.22,1.28-1.77c0-0.19-0.04-0.39-0.09-0.61c-0.13,0.09-0.25,0.17-0.38,0.25
		c0.02,0.12,0.05,0.24,0.05,0.35c0,0.62-0.34,1.09-1.02,1.38c-0.68,0.3-1.74,0.48-3.16,0.53v1.83c2.97-0.18,6.11-0.27,9.4-0.27
		c4.4,0,8.04,0.09,10.92,0.27v-1.83C340.12,410.02,338.57,409.37,337.32,408.51z"/>
	<path class="st0" d="M337.32,408.51c-1.25-0.86-2.38-2.06-3.39-3.61l-2.31-3.24c-0.07,0.14-0.14,0.29-0.22,0.43l2.17,3.04
		c1.03,1.58,2.21,2.84,3.5,3.73c1.21,0.84,2.71,1.49,4.45,1.94v1.04c-2.81-0.16-6.33-0.24-10.49-0.24c-3.12,0-6.14,0.08-8.98,0.24
		v-0.97c1.28-0.08,2.24-0.26,2.91-0.55c1.06-0.46,1.28-1.22,1.28-1.77c0-0.19-0.04-0.39-0.09-0.61c-0.13,0.09-0.25,0.17-0.38,0.25
		c0.02,0.12,0.05,0.24,0.05,0.35c0,0.62-0.34,1.09-1.02,1.38c-0.68,0.3-1.74,0.48-3.16,0.53v1.83c2.97-0.18,6.11-0.27,9.4-0.27
		c4.4,0,8.04,0.09,10.92,0.27v-1.83C340.12,410.02,338.57,409.37,337.32,408.51z"/>
	<path class="st0" d="M316.82,380.89c-0.23-0.1-0.47-0.18-0.71-0.26l7.95,11.15c-0.03-0.3-0.06-0.59-0.1-0.87L316.82,380.89z"/>
	<path class="st0" d="M316.82,380.89c-0.23-0.1-0.47-0.18-0.71-0.26l7.95,11.15c-0.03-0.3-0.06-0.59-0.1-0.87L316.82,380.89z"/>
	<path class="st0" d="M326.02,354.23c0.15-0.52,0.23-1,0.23-1.43c0-2.29-1.9-3.54-5.66-3.71v-0.96c3.32,0.16,6.7,0.25,10.05,0.25
		c3.1,0,5.58-0.08,7.37-0.23v0.99c-1.93,0.33-3.77,0.98-5.47,1.95c-1.81,1.03-3.57,2.65-5.23,4.79l-0.16,0.2
		c0.07,0.14,0.14,0.29,0.21,0.43l0.29-0.37c1.63-2.11,3.33-3.67,5.1-4.68c1.77-1.01,3.66-1.66,5.68-1.96v-1.83
		c-1.81,0.18-4.41,0.27-7.8,0.27c-3.51,0-7-0.09-10.47-0.27v1.83c3.77,0.09,5.66,1.19,5.66,3.3c0,0.3-0.05,0.64-0.14,0.99
		c0.02,0.03,0.04,0.05,0.06,0.07C325.86,353.98,325.93,354.11,326.02,354.23z"/>
	<path class="st0" d="M326.02,354.23c0.15-0.52,0.23-1,0.23-1.43c0-2.29-1.9-3.54-5.66-3.71v-0.96c3.32,0.16,6.7,0.25,10.05,0.25
		c3.1,0,5.58-0.08,7.37-0.23v0.99c-1.93,0.33-3.77,0.98-5.47,1.95c-1.81,1.03-3.57,2.65-5.23,4.79l-0.16,0.2
		c0.07,0.14,0.14,0.29,0.21,0.43l0.29-0.37c1.63-2.11,3.33-3.67,5.1-4.68c1.77-1.01,3.66-1.66,5.68-1.96v-1.83
		c-1.81,0.18-4.41,0.27-7.8,0.27c-3.51,0-7-0.09-10.47-0.27v1.83c3.77,0.09,5.66,1.19,5.66,3.3c0,0.3-0.05,0.64-0.14,0.99
		c0.02,0.03,0.04,0.05,0.06,0.07C325.86,353.98,325.93,354.11,326.02,354.23z"/>
	<path class="st0" d="M317.23,352.55c2.01,2.23,3.05,5.6,3.13,9.99l0.79-1c2.31-2.93,3.77-5.29,4.36-7.07
		c-1.37-1.81-3.33-3.26-5.85-4.31c-2.78-1.16-6.24-1.75-10.28-1.75l0,0v0.74C312.85,349.48,315.48,350.61,317.23,352.55z"/>
	<path class="st0" d="M304.4,409.66c0.09,0.01,0.17,0.04,0.27,0.05C304.57,409.7,304.49,409.67,304.4,409.66L304.4,409.66z"/>
	<path class="st0" d="M317.3,374.15c-0.85,1.15-1.97,2.06-3.33,2.75l0.36,0.5l0.25-0.08c4.65-1.43,8.08-3.52,10.2-6.19
		c2.11-2.66,3.18-5.7,3.18-9.04c0-1.84-0.33-3.55-0.97-5.09l-6.73,8.62C319.92,369.06,318.95,371.92,317.3,374.15z"/>
	<path class="st0" d="M320.67,382.72c2.27,2.18,3.59,5.24,3.94,9.09l6.66,9.33c0.94-2.06,1.42-4.33,1.42-6.79
		c0-3.96-1.38-7.4-4.09-10.22c-2.65-2.75-7.15-4.58-13.36-5.48l1.02,1.43C318.01,380.74,319.51,381.6,320.67,382.72z"/>
	<path class="st0" d="M307.21,409.85c3.53,0,6.51-0.52,8.94-1.55C313.73,409.33,310.74,409.85,307.21,409.85L307.21,409.85z"/>
	<path class="st0" d="M318.8,406.81c-0.79,0.58-1.68,1.08-2.65,1.49C317.12,407.89,318.01,407.39,318.8,406.81z"/>
	<path class="st0" d="M285.2,410.64v0.7c0.29-0.02,0.6-0.03,0.92-0.05v-0.72C285.82,410.6,285.52,410.63,285.2,410.64z"/>
	<path class="st0" d="M320.92,350.11c0.67,0.33,1.3,0.69,1.88,1.07C322.21,350.8,321.58,350.44,320.92,350.11z"/>
	<path class="st0" d="M291.95,355.78c-0.07-1.47-0.24-2.59-0.52-3.37C291.71,353.18,291.89,354.31,291.95,355.78z"/>
	<path class="st0" d="M285.2,348.35v0.7c0.33,0.02,0.62,0.04,0.92,0.07v-0.72C285.8,348.38,285.48,348.37,285.2,348.35z"/>
	<path class="st0" d="M309.39,411.89l2.08,0.04L309.39,411.89z"/>
	<path class="st0" d="M320.92,350.11c-0.34-0.16-0.68-0.32-1.04-0.47c-1.43-0.6-3.02-1.05-4.77-1.34c1.75,0.3,3.34,0.75,4.77,1.34
		C320.23,349.79,320.57,349.95,320.92,350.11z"/>
	<path class="st0" d="M314.73,377.86v0.12l0,0V377.86c4.78-1.47,8.27-3.6,10.47-6.37c1.1-1.39,1.92-2.86,2.47-4.43
		c-0.55,1.56-1.37,3.04-2.47,4.43C323.01,374.26,319.51,376.38,314.73,377.86z"/>
	<path class="st0" d="M324.26,409.11c0.54-0.28,1.04-0.59,1.53-0.91l0,0C325.29,408.52,324.79,408.83,324.26,409.11z"/>
	<path class="st0" d="M322.73,403.1c-2.53,4.69-7.47,7.13-14.78,7.28c0.45,0.04,0.92,0.07,1.44,0.09v0.87l2.09,0.04
		c4.34,0,8.17-0.74,11.36-2.19c1-0.46,1.93-0.98,2.79-1.55c-0.16-0.38-0.39-0.8-0.72-1.28L322.73,403.1z"/>
	<path class="st0" d="M328.98,383.76c1.06,1.1,1.93,2.29,2.59,3.55C330.92,386.05,330.05,384.86,328.98,383.76
		c-2.82-2.93-7.56-4.84-14.2-5.72l0,0C321.42,378.93,326.17,380.84,328.98,383.76z"/>
	<path class="st0" d="M292.96,407.62c0.37-1.04,0.56-2.7,0.56-4.99v-45.28c0-2.29-0.19-3.95-0.56-4.99
		c-0.37-1.04-1.05-1.75-2.05-2.14c-0.28-0.11-0.63-0.2-1.01-0.29c0.97,0.47,1.67,1.23,2.06,2.3c0.39,1.1,0.58,2.79,0.58,5.14v44.96
		c0,2.36-0.19,4.04-0.58,5.14c-0.42,1.19-1.22,2.01-2.36,2.45c-0.42,0.16-0.94,0.29-1.55,0.41c1.22-0.13,2.18-0.31,2.85-0.57
		C291.9,409.37,292.58,408.66,292.96,407.62z"/>
	<path class="st0" d="M331.64,401.66c0.55-1.14,0.97-2.34,1.24-3.61C332.61,399.32,332.18,400.52,331.64,401.66L331.64,401.66z"/>
	<path class="st0" d="M333.23,394.36L333.23,394.36c0,1.28-0.12,2.51-0.37,3.69C333.11,396.88,333.23,395.65,333.23,394.36z"/>
	<path class="st0" d="M304.71,349.73c-0.38,0.05-0.72,0.12-1.04,0.21C303.98,349.85,304.33,349.79,304.71,349.73L304.71,349.73z"/>
	<path class="st0" d="M304.71,349.73c-0.38,0.05-0.72,0.12-1.04,0.21C303.98,349.85,304.33,349.79,304.71,349.73L304.71,349.73z"/>
	<path class="st0" d="M330.61,403.48c0.3-0.45,0.56-0.92,0.81-1.39l0,0C331.17,402.56,330.9,403.03,330.61,403.48z"/>
	<path class="st0" d="M330.61,403.48c0.3-0.45,0.56-0.92,0.81-1.39l0,0C331.17,402.56,330.9,403.03,330.61,403.48z"/>
	<path class="st0" d="M306.51,377.86c1.85,0,3.49-0.19,4.92-0.57C309.99,377.67,308.36,377.86,306.51,377.86L306.51,377.86z"/>
	<path class="st0" d="M306.51,377.86c1.85,0,3.49-0.19,4.92-0.57C309.99,377.67,308.36,377.86,306.51,377.86L306.51,377.86z"/>
	<polygon class="st0" points="300.4,379.4 301.57,379.4 301.57,379.4 	"/>
	<polygon class="st0" points="300.4,379.4 301.57,379.4 301.57,379.4 	"/>
	<path class="st0" d="M302.88,409.28c-0.13-0.05-0.23-0.12-0.35-0.19C302.64,409.15,302.76,409.23,302.88,409.28
		c0.1,0.04,0.22,0.07,0.33,0.1l0,0C303.1,409.34,302.98,409.32,302.88,409.28z"/>
	<path class="st0" d="M302.88,409.28c-0.13-0.05-0.23-0.12-0.35-0.19C302.64,409.15,302.76,409.23,302.88,409.28
		c0.1,0.04,0.22,0.07,0.33,0.1l0,0C303.1,409.34,302.98,409.32,302.88,409.28z"/>
	<path class="st0" d="M324.71,393.96c0,3.44-0.59,6.35-1.76,8.71l2.29,3.46c0.32,0.46,0.56,0.88,0.73,1.27
		c1.69-1.18,3.08-2.6,4.16-4.23c0.34-0.51,0.63-1.05,0.91-1.59l-6.38-8.95C324.7,393.07,324.71,393.51,324.71,393.96z"/>
	<path class="st0" d="M324.71,393.96c0,3.44-0.59,6.35-1.76,8.71l2.29,3.46c0.32,0.46,0.56,0.88,0.73,1.27
		c1.69-1.18,3.08-2.6,4.16-4.23c0.34-0.51,0.63-1.05,0.91-1.59l-6.38-8.95C324.7,393.07,324.71,393.51,324.71,393.96z"/>
	<path class="st0" d="M326.85,355.46c-0.16-0.28-0.33-0.55-0.51-0.82c-0.1-0.14-0.21-0.28-0.31-0.42l0,0
		c0.1,0.14,0.21,0.27,0.31,0.42C326.51,354.91,326.68,355.18,326.85,355.46z"/>
	<path class="st0" d="M326.85,355.46c-0.16-0.28-0.33-0.55-0.51-0.82c-0.1-0.14-0.21-0.28-0.31-0.42l0,0
		c0.1,0.14,0.21,0.27,0.31,0.42C326.51,354.91,326.68,355.18,326.85,355.46z"/>
	<path class="st0" d="M320.38,363.22c0,0.56-0.02,1.1-0.05,1.63l6.46-8.28c-0.26-0.56-0.56-1.09-0.91-1.61
		c-0.02-0.03-0.04-0.06-0.06-0.09c-0.66,1.8-2.08,4.09-4.33,6.93L320.38,363.22z"/>
	<path class="st0" d="M320.38,363.22c0,0.56-0.02,1.1-0.05,1.63l6.46-8.28c-0.26-0.56-0.56-1.09-0.91-1.61
		c-0.02-0.03-0.04-0.06-0.06-0.09c-0.66,1.8-2.08,4.09-4.33,6.93L320.38,363.22z"/>
	<path class="st0" d="M300.42,407.33c-0.38-1.1-0.56-2.74-0.56-5v-22.92v-0.55h0.55h7.61c2.89,0,5.41,0.33,7.53,0.99l-0.91-1.27
		l-0.45-0.06v-0.48v-0.09l-0.61-0.86c-1.91,0.87-4.26,1.32-7.07,1.32h-6.11h-0.55v-0.55v-20.49c0-2.23,0.18-3.88,0.56-5.04
		c0.4-1.24,1.16-2.12,2.24-2.61c1.03-0.47,2.49-0.69,4.48-0.69c0.62,0,1.22,0.03,1.8,0.07c0.01,0,0.02,0,0.03,0v-0.69l-3.42,0.04
		c-5.56,0.09-8.78,0.13-9.83,0.13c-3.74,0-6.8-0.05-9.16-0.16v0.67c2.05,0.1,3.53,0.34,4.52,0.72c1.11,0.43,1.88,1.24,2.3,2.39
		c0.39,1.1,0.58,2.78,0.58,5.14v45.28c0,2.36-0.19,4.04-0.58,5.14c-0.41,1.16-1.19,1.96-2.3,2.39c-0.98,0.38-2.47,0.62-4.52,0.72
		v0.4c2.4-0.11,5.52-0.16,9.34-0.16c3.7,0,7.54,0.06,11.43,0.18l1.63,0.03v-0.45c-1.82-0.09-3.16-0.29-4.14-0.6
		c-0.86-0.1-1.59-0.26-2.15-0.49C301.57,409.34,300.82,408.52,300.42,407.33z"/>
	<path class="st0" d="M300.42,407.33c-0.38-1.1-0.56-2.74-0.56-5v-22.92v-0.55h0.55h7.61c2.89,0,5.41,0.33,7.53,0.99l-0.91-1.27
		l-0.45-0.06v-0.48v-0.09l-0.61-0.86c-1.91,0.87-4.26,1.32-7.07,1.32h-6.11h-0.55v-0.55v-20.49c0-2.23,0.18-3.88,0.56-5.04
		c0.4-1.24,1.16-2.12,2.24-2.61c1.03-0.47,2.49-0.69,4.48-0.69c0.62,0,1.22,0.03,1.8,0.07c0.01,0,0.02,0,0.03,0v-0.69l-3.42,0.04
		c-5.56,0.09-8.78,0.13-9.83,0.13c-3.74,0-6.8-0.05-9.16-0.16v0.67c2.05,0.1,3.53,0.34,4.52,0.72c1.11,0.43,1.88,1.24,2.3,2.39
		c0.39,1.1,0.58,2.78,0.58,5.14v45.28c0,2.36-0.19,4.04-0.58,5.14c-0.41,1.16-1.19,1.96-2.3,2.39c-0.98,0.38-2.47,0.62-4.52,0.72
		v0.4c2.4-0.11,5.52-0.16,9.34-0.16c3.7,0,7.54,0.06,11.43,0.18l1.63,0.03v-0.45c-1.82-0.09-3.16-0.29-4.14-0.6
		c-0.86-0.1-1.59-0.26-2.15-0.49C301.57,409.34,300.82,408.52,300.42,407.33z"/>
	<path class="st0" d="M308.01,379.4c3.19,0,5.88,0.42,8.09,1.22l0,0C313.89,379.82,311.2,379.4,308.01,379.4h-4.13l0,0H308.01z"/>
	<path class="st0" d="M308.01,379.4c3.19,0,5.88,0.42,8.09,1.22l0,0C313.89,379.82,311.2,379.4,308.01,379.4h-4.13l0,0H308.01z"/>
	<path class="st0" d="M326.17,407.95L326.17,407.95c0.08-0.06,0.17-0.11,0.26-0.17C326.35,407.83,326.26,407.89,326.17,407.95z"/>
	<path class="st0" d="M326.17,407.95L326.17,407.95c0.08-0.06,0.17-0.11,0.26-0.17C326.35,407.83,326.26,407.89,326.17,407.95z"/>
	<path class="st0" d="M303.67,349.94c-0.3,0.08-0.56,0.17-0.8,0.28c-0.47,0.21-0.87,0.51-1.19,0.89c0.32-0.38,0.72-0.68,1.19-0.89
		C303.11,350.11,303.39,350.02,303.67,349.94z"/>
	<path class="st0" d="M303.67,349.94c-0.3,0.08-0.56,0.17-0.8,0.28c-0.47,0.21-0.87,0.51-1.19,0.89c0.32-0.38,0.72-0.68,1.19-0.89
		C303.11,350.11,303.39,350.02,303.67,349.94z"/>
	<path class="st0" d="M307.3,411.84c-1.95-0.06-3.87-0.1-5.78-0.13C303.43,411.74,305.36,411.78,307.3,411.84l2.08,0.04l0,0
		L307.3,411.84z"/>
	<path class="st0" d="M307.3,411.84c-1.95-0.06-3.87-0.1-5.78-0.13C303.43,411.74,305.36,411.78,307.3,411.84l2.08,0.04l0,0
		L307.3,411.84z"/>
	<path class="st0" d="M307.3,411.84c-1.95-0.06-3.87-0.1-5.78-0.13C303.43,411.74,305.36,411.78,307.3,411.84l2.08,0.04l0,0
		L307.3,411.84z"/>
	<path class="st0" d="M303.2,409.38L303.2,409.38c0.35,0.11,0.74,0.21,1.2,0.28l0,0C303.95,409.59,303.55,409.49,303.2,409.38z"/>
	<path class="st0" d="M303.2,409.38L303.2,409.38c0.35,0.11,0.74,0.21,1.2,0.28l0,0C303.95,409.59,303.55,409.49,303.2,409.38z"/>
	<path class="st0" d="M303.2,409.38L303.2,409.38c0.35,0.11,0.74,0.21,1.2,0.28l0,0C303.95,409.59,303.55,409.49,303.2,409.38z"/>
	<path class="st0" d="M324.67,392.64l6.38,8.95c0.07-0.14,0.15-0.29,0.22-0.43l-6.66-9.33
		C324.64,392.09,324.65,392.36,324.67,392.64z"/>
	<path class="st0" d="M324.67,392.64l6.38,8.95c0.07-0.14,0.15-0.29,0.22-0.43l-6.66-9.33
		C324.64,392.09,324.65,392.36,324.67,392.64z"/>
	<path class="st0" d="M324.67,392.64l6.38,8.95c0.07-0.14,0.15-0.29,0.22-0.43l-6.66-9.33
		C324.64,392.09,324.65,392.36,324.67,392.64z"/>
	<path class="st0" d="M314.64,378.58l0.91,1.27c0.25,0.08,0.47,0.17,0.71,0.25l-1.02-1.43c-0.19-0.03-0.37-0.06-0.57-0.09H314.64z"
		/>
	<path class="st0" d="M314.64,378.58l0.91,1.27c0.25,0.08,0.47,0.17,0.71,0.25l-1.02-1.43c-0.19-0.03-0.37-0.06-0.57-0.09H314.64z"
		/>
	<path class="st0" d="M314.64,378.58l0.91,1.27c0.25,0.08,0.47,0.17,0.71,0.25l-1.02-1.43c-0.19-0.03-0.37-0.06-0.57-0.09H314.64z"
		/>
	<path class="st0" d="M313.57,377.09l0.61,0.86v-0.09v-0.41l0.14-0.04l-0.36-0.5C313.85,376.97,313.71,377.03,313.57,377.09z"/>
	<path class="st0" d="M313.57,377.09l0.61,0.86v-0.09v-0.41l0.14-0.04l-0.36-0.5C313.85,376.97,313.71,377.03,313.57,377.09z"/>
	<path class="st0" d="M313.57,377.09l0.61,0.86v-0.09v-0.41l0.14-0.04l-0.36-0.5C313.85,376.97,313.71,377.03,313.57,377.09z"/>
	<path class="st0" d="M314.73,378.03c0.02,0,0.03,0.01,0.05,0.01l0,0C314.76,378.04,314.76,378.03,314.73,378.03v-0.06l0,0V378.03z"
		/>
	<path class="st0" d="M314.73,378.03c0.02,0,0.03,0.01,0.05,0.01l0,0C314.76,378.04,314.76,378.03,314.73,378.03v-0.06l0,0V378.03z"
		/>
	<path class="st0" d="M314.73,378.03c0.02,0,0.03,0.01,0.05,0.01l0,0C314.76,378.04,314.76,378.03,314.73,378.03v-0.06l0,0V378.03z"
		/>
	<polygon class="st0" points="303.89,379.4 303.89,379.4 301.55,379.4 301.55,379.4 	"/>
	<polygon class="st0" points="303.89,379.4 303.89,379.4 301.55,379.4 301.55,379.4 	"/>
	<polygon class="st0" points="303.89,379.4 303.89,379.4 301.55,379.4 301.55,379.4 	"/>
	<path class="st0" d="M326.17,407.95c-0.13,0.09-0.25,0.17-0.38,0.25l0,0C325.92,408.12,326.04,408.03,326.17,407.95L326.17,407.95z
		"/>
	<path class="st0" d="M326.17,407.95c-0.13,0.09-0.25,0.17-0.38,0.25l0,0C325.92,408.12,326.04,408.03,326.17,407.95L326.17,407.95z
		"/>
	<path class="st0" d="M326.17,407.95c-0.13,0.09-0.25,0.17-0.38,0.25l0,0C325.92,408.12,326.04,408.03,326.17,407.95L326.17,407.95z
		"/>
	<path class="st0" d="M307.95,410.38c-0.25,0.01-0.48,0.02-0.73,0.02c-0.91,0-1.7-0.05-2.4-0.13c0.97,0.31,2.32,0.51,4.14,0.6v0.45
		l0.43,0.01v-0.87C308.86,410.45,308.39,410.42,307.95,410.38z"/>
	<path class="st0" d="M307.95,410.38c-0.25,0.01-0.48,0.02-0.73,0.02c-0.91,0-1.7-0.05-2.4-0.13c0.97,0.31,2.32,0.51,4.14,0.6v0.45
		l0.43,0.01v-0.87C308.86,410.45,308.39,410.42,307.95,410.38z"/>
	<path class="st0" d="M307.95,410.38c-0.25,0.01-0.48,0.02-0.73,0.02c-0.91,0-1.7-0.05-2.4-0.13c0.97,0.31,2.32,0.51,4.14,0.6v0.45
		l0.43,0.01v-0.87C308.86,410.45,308.39,410.42,307.95,410.38z"/>
	<path class="st0" d="M325.26,406.13l-2.29-3.46c-0.07,0.15-0.16,0.28-0.24,0.42l2.17,3.27c0.33,0.47,0.57,0.9,0.72,1.28
		c0.12-0.08,0.25-0.16,0.36-0.24C325.82,407.02,325.57,406.6,325.26,406.13z"/>
	<path class="st0" d="M325.26,406.13l-2.29-3.46c-0.07,0.15-0.16,0.28-0.24,0.42l2.17,3.27c0.33,0.47,0.57,0.9,0.72,1.28
		c0.12-0.08,0.25-0.16,0.36-0.24C325.82,407.02,325.57,406.6,325.26,406.13z"/>
	<path class="st0" d="M325.26,406.13l-2.29-3.46c-0.07,0.15-0.16,0.28-0.24,0.42l2.17,3.27c0.33,0.47,0.57,0.9,0.72,1.28
		c0.12-0.08,0.25-0.16,0.36-0.24C325.82,407.02,325.57,406.6,325.26,406.13z"/>
	<path class="st0" d="M316.82,380.89L316.82,380.89c-0.23-0.1-0.47-0.18-0.71-0.26l0,0C316.35,380.71,316.58,380.79,316.82,380.89z"
		/>
	<path class="st0" d="M316.82,380.89L316.82,380.89c-0.23-0.1-0.47-0.18-0.71-0.26l0,0C316.35,380.71,316.58,380.79,316.82,380.89z"
		/>
	<path class="st0" d="M316.82,380.89L316.82,380.89c-0.23-0.1-0.47-0.18-0.71-0.26l0,0C316.35,380.71,316.58,380.79,316.82,380.89z"
		/>
	<path class="st0" d="M325.76,353.86c0.09,0.12,0.18,0.24,0.27,0.36l0,0C325.93,354.11,325.86,353.98,325.76,353.86z"/>
	<path class="st0" d="M325.76,353.86c0.09,0.12,0.18,0.24,0.27,0.36l0,0C325.93,354.11,325.86,353.98,325.76,353.86z"/>
	<path class="st0" d="M325.76,353.86c0.09,0.12,0.18,0.24,0.27,0.36l0,0C325.93,354.11,325.86,353.98,325.76,353.86z"/>
	<path class="st0" d="M331.42,402.09L331.42,402.09c0.07-0.14,0.15-0.29,0.22-0.43l0,0C331.57,401.81,331.48,401.95,331.42,402.09z"
		/>
	<path class="st0" d="M331.42,402.09L331.42,402.09c0.07-0.14,0.15-0.29,0.22-0.43l0,0C331.57,401.81,331.48,401.95,331.42,402.09z"
		/>
	<path class="st0" d="M331.42,402.09L331.42,402.09c0.07-0.14,0.15-0.29,0.22-0.43l0,0C331.57,401.81,331.48,401.95,331.42,402.09z"
		/>
	<path class="st0" d="M320.26,365.63l6.73-8.62c-0.06-0.15-0.12-0.3-0.19-0.45l-6.46,8.28C320.3,365.11,320.27,365.37,320.26,365.63
		z"/>
	<path class="st0" d="M320.26,365.63l6.73-8.62c-0.06-0.15-0.12-0.3-0.19-0.45l-6.46,8.28C320.3,365.11,320.27,365.37,320.26,365.63
		z"/>
	<path class="st0" d="M320.26,365.63l6.73-8.62c-0.06-0.15-0.12-0.3-0.19-0.45l-6.46,8.28C320.3,365.11,320.27,365.37,320.26,365.63
		z"/>
	<path class="st0" d="M305.79,349.62c-0.39,0.03-0.75,0.06-1.09,0.11l0,0C305.04,349.68,305.4,349.64,305.79,349.62z"/>
	<path class="st0" d="M305.79,349.62c-0.39,0.03-0.75,0.06-1.09,0.11l0,0C305.04,349.68,305.4,349.64,305.79,349.62z"/>
	<path class="st0" d="M305.79,349.62c-0.39,0.03-0.75,0.06-1.09,0.11l0,0C305.04,349.68,305.4,349.64,305.79,349.62z"/>
	<path class="st0" d="M320.36,362.54c0,0.18,0.02,0.35,0.02,0.54c0,0.05,0,0.09,0,0.14l1.11-1.42c2.25-2.84,3.67-5.13,4.33-6.93
		c-0.1-0.14-0.2-0.27-0.3-0.41c-0.6,1.79-2.05,4.14-4.36,7.07L320.36,362.54z"/>
	<path class="st0" d="M320.36,362.54c0,0.18,0.02,0.35,0.02,0.54c0,0.05,0,0.09,0,0.14l1.11-1.42c2.25-2.84,3.67-5.13,4.33-6.93
		c-0.1-0.14-0.2-0.27-0.3-0.41c-0.6,1.79-2.05,4.14-4.36,7.07L320.36,362.54z"/>
	<path class="st0" d="M320.36,362.54c0,0.18,0.02,0.35,0.02,0.54c0,0.05,0,0.09,0,0.14l1.11-1.42c2.25-2.84,3.67-5.13,4.33-6.93
		c-0.1-0.14-0.2-0.27-0.3-0.41c-0.6,1.79-2.05,4.14-4.36,7.07L320.36,362.54z"/>
	<path class="st0" d="M308.95,349.09c-0.01,0-0.02,0-0.03,0c0.16,0.01,0.31,0.03,0.46,0.05v-0.74h-0.43L308.95,349.09L308.95,349.09
		z"/>
	<path class="st0" d="M308.95,349.09c-0.01,0-0.02,0-0.03,0c0.16,0.01,0.31,0.03,0.46,0.05v-0.74h-0.43L308.95,349.09L308.95,349.09
		z"/>
	<path class="st0" d="M308.95,349.09c-0.01,0-0.02,0-0.03,0c0.16,0.01,0.31,0.03,0.46,0.05v-0.74h-0.43L308.95,349.09L308.95,349.09
		z"/>
	<path class="st0" d="M286.55,410.88c2.05-0.1,3.53-0.34,4.52-0.72c1.11-0.43,1.88-1.24,2.3-2.39c0.39-1.1,0.58-2.78,0.58-5.14
		v-45.28c0-2.36-0.19-4.04-0.58-5.14c-0.41-1.16-1.19-1.96-2.3-2.39c-0.99-0.38-2.47-0.62-4.52-0.72v-0.67
		c-0.14-0.01-0.29-0.01-0.43-0.02v0.72c1.51,0.13,2.67,0.34,3.48,0.65c0.11,0.04,0.2,0.1,0.3,0.15c0.38,0.09,0.72,0.18,1.01,0.29
		c1,0.39,1.68,1.1,2.05,2.14s0.56,2.7,0.56,4.99v45.28c0,2.29-0.19,3.95-0.56,4.99c-0.37,1.04-1.05,1.75-2.05,2.14
		c-0.67,0.26-1.64,0.45-2.85,0.57c-0.56,0.1-1.21,0.19-1.94,0.25v0.72c0.14-0.01,0.29-0.01,0.43-0.02
		C286.54,411.28,286.54,410.88,286.55,410.88z"/>
	<path class="st0" d="M286.55,410.88c2.05-0.1,3.53-0.34,4.52-0.72c1.11-0.43,1.88-1.24,2.3-2.39c0.39-1.1,0.58-2.78,0.58-5.14
		v-45.28c0-2.36-0.19-4.04-0.58-5.14c-0.41-1.16-1.19-1.96-2.3-2.39c-0.99-0.38-2.47-0.62-4.52-0.72v-0.67
		c-0.14-0.01-0.29-0.01-0.43-0.02v0.72c1.51,0.13,2.67,0.34,3.48,0.65c0.11,0.04,0.2,0.1,0.3,0.15c0.38,0.09,0.72,0.18,1.01,0.29
		c1,0.39,1.68,1.1,2.05,2.14s0.56,2.7,0.56,4.99v45.28c0,2.29-0.19,3.95-0.56,4.99c-0.37,1.04-1.05,1.75-2.05,2.14
		c-0.67,0.26-1.64,0.45-2.85,0.57c-0.56,0.1-1.21,0.19-1.94,0.25v0.72c0.14-0.01,0.29-0.01,0.43-0.02
		C286.54,411.28,286.54,410.88,286.55,410.88z"/>
	<path class="st0" d="M286.55,410.88c2.05-0.1,3.53-0.34,4.52-0.72c1.11-0.43,1.88-1.24,2.3-2.39c0.39-1.1,0.58-2.78,0.58-5.14
		v-45.28c0-2.36-0.19-4.04-0.58-5.14c-0.41-1.16-1.19-1.96-2.3-2.39c-0.99-0.38-2.47-0.62-4.52-0.72v-0.67
		c-0.14-0.01-0.29-0.01-0.43-0.02v0.72c1.51,0.13,2.67,0.34,3.48,0.65c0.11,0.04,0.2,0.1,0.3,0.15c0.38,0.09,0.72,0.18,1.01,0.29
		c1,0.39,1.68,1.1,2.05,2.14s0.56,2.7,0.56,4.99v45.28c0,2.29-0.19,3.95-0.56,4.99c-0.37,1.04-1.05,1.75-2.05,2.14
		c-0.67,0.26-1.64,0.45-2.85,0.57c-0.56,0.1-1.21,0.19-1.94,0.25v0.72c0.14-0.01,0.29-0.01,0.43-0.02
		C286.54,411.28,286.54,410.88,286.55,410.88z"/>
	<path class="st0" d="M317.7,411.37c-1.45,0.28-2.98,0.45-4.6,0.52C314.73,411.83,316.26,411.65,317.7,411.37z"/>
	<path class="st0" d="M333.23,394.36c0-0.52-0.02-1.02-0.07-1.52C333.21,393.34,333.23,393.85,333.23,394.36L333.23,394.36z"/>
	<path class="st0" d="M286.17,410.02c0.94-0.08,1.73-0.2,2.38-0.35C287.9,409.82,287.11,409.94,286.17,410.02z"/>
	<path class="st0" d="M284.64,411.93c0.45-0.03,0.95-0.06,1.47-0.08l0,0C285.6,411.87,285.1,411.9,284.64,411.93z"/>
	<path class="st0" d="M286.11,347.85c-0.16-0.01-0.33-0.01-0.48-0.02C285.8,347.83,285.96,347.84,286.11,347.85L286.11,347.85z"/>
	<path class="st0" d="M321.8,410.22c-0.86,0.33-1.75,0.61-2.68,0.84C320.05,410.83,320.95,410.55,321.8,410.22z"/>
	<path class="st0" d="M310.23,349.79c2.4,0.35,4.32,1.13,5.77,2.35C314.57,350.92,312.64,350.13,310.23,349.79z"/>
	<path class="st0" d="M291.77,405.86c-0.09,0.56-0.2,1.04-0.34,1.42c-0.18,0.52-0.45,0.95-0.79,1.31c0.34-0.35,0.6-0.79,0.79-1.31
		C291.57,406.9,291.68,406.42,291.77,405.86z"/>
	<path class="st0" d="M313.65,376.45c0.92-0.45,1.73-1,2.4-1.68C315.38,375.45,314.57,376,313.65,376.45L313.65,376.45z"/>
	<path class="st0" d="M309.39,347.85L309.39,347.85L309.39,347.85z"/>
	<path class="st0" d="M307.21,409.85L307.21,409.85c-0.97,0-1.82-0.05-2.55-0.14C305.39,409.8,306.24,409.85,307.21,409.85z"/>
	<path class="st0" d="M301.26,407.87c0.31,0.54,0.74,0.93,1.28,1.22C301.99,408.8,301.57,408.4,301.26,407.87z"/>
	<path class="st0" d="M301.26,407.87c0.31,0.54,0.74,0.93,1.28,1.22C301.99,408.8,301.57,408.4,301.26,407.87z"/>
	<path class="st0" d="M286.77,411.82c0.19-0.01,0.4-0.01,0.6-0.02l0,0C287.17,411.8,286.96,411.81,286.77,411.82z"/>
	<path class="st0" d="M286.77,411.82c0.19-0.01,0.4-0.01,0.6-0.02l0,0C287.17,411.8,286.96,411.81,286.77,411.82z"/>
	<path class="st0" d="M286.55,411.83L286.55,411.83c0.08,0,0.15-0.01,0.23-0.01C286.7,411.82,286.62,411.82,286.55,411.83z"/>
	<path class="st0" d="M286.55,411.83L286.55,411.83c0.08,0,0.15-0.01,0.23-0.01C286.7,411.82,286.62,411.82,286.55,411.83z"/>
	<path class="st0" d="M312.79,376.85c0.16-0.06,0.31-0.14,0.46-0.21l0,0C313.1,376.7,312.95,376.79,312.79,376.85z"/>
	<path class="st0" d="M312.79,376.85c0.16-0.06,0.31-0.14,0.46-0.21l0,0C313.1,376.7,312.95,376.79,312.79,376.85z"/>
	<path class="st0" d="M287.38,411.79c0.62-0.02,1.28-0.04,1.99-0.06C288.64,411.75,287.99,411.77,287.38,411.79L287.38,411.79z"/>
	<path class="st0" d="M287.38,411.79c0.62-0.02,1.28-0.04,1.99-0.06C288.64,411.75,287.99,411.77,287.38,411.79L287.38,411.79z"/>
	<path class="st0" d="M287.38,411.79c0.62-0.02,1.28-0.04,1.99-0.06C288.64,411.75,287.99,411.77,287.38,411.79L287.38,411.79z"/>
	<path class="st0" d="M313.65,376.45c-0.13,0.06-0.26,0.12-0.4,0.18l0,0C313.39,376.57,313.52,376.51,313.65,376.45L313.65,376.45z"
		/>
	<path class="st0" d="M313.65,376.45c-0.13,0.06-0.26,0.12-0.4,0.18l0,0C313.39,376.57,313.52,376.51,313.65,376.45L313.65,376.45z"
		/>
	<path class="st0" d="M313.65,376.45c-0.13,0.06-0.26,0.12-0.4,0.18l0,0C313.39,376.57,313.52,376.51,313.65,376.45L313.65,376.45z"
		/>
	<path class="st0" d="M287.96,347.92c-0.66-0.02-1.27-0.05-1.84-0.08l0,0C286.7,347.88,287.3,347.9,287.96,347.92z"/>
	<path class="st0" d="M287.96,347.92c-0.66-0.02-1.27-0.05-1.84-0.08l0,0C286.7,347.88,287.3,347.9,287.96,347.92z"/>
	<path class="st0" d="M287.96,347.92c-0.66-0.02-1.27-0.05-1.84-0.08l0,0C286.7,347.88,287.3,347.9,287.96,347.92z"/>
	<path class="st0" d="M295.7,348.03c-3.04,0-5.62-0.03-7.74-0.1C290.08,347.99,292.67,348.03,295.7,348.03
		c1.06,0,4.34-0.04,9.82-0.13l3.85-0.04l0,0l-3.85,0.04C300.04,347.98,296.77,348.03,295.7,348.03z"/>
	<path class="st0" d="M295.7,348.03c-3.04,0-5.62-0.03-7.74-0.1C290.08,347.99,292.67,348.03,295.7,348.03
		c1.06,0,4.34-0.04,9.82-0.13l3.85-0.04l0,0l-3.85,0.04C300.04,347.98,296.77,348.03,295.7,348.03z"/>
	<path class="st0" d="M295.7,348.03c-3.04,0-5.62-0.03-7.74-0.1C290.08,347.99,292.67,348.03,295.7,348.03
		c1.06,0,4.34-0.04,9.82-0.13l3.85-0.04l0,0l-3.85,0.04C300.04,347.98,296.77,348.03,295.7,348.03z"/>
	<path class="st0" d="M294.08,411.67c-1.16,0.01-2.25,0.02-3.26,0.03C291.83,411.69,292.92,411.68,294.08,411.67z"/>
	<path class="st0" d="M294.08,411.67c-1.16,0.01-2.25,0.02-3.26,0.03C291.83,411.69,292.92,411.68,294.08,411.67z"/>
	<path class="st0" d="M294.08,411.67c-1.16,0.01-2.25,0.02-3.26,0.03C291.83,411.69,292.92,411.68,294.08,411.67z"/>
	<path class="st0" d="M286.55,411.83c-0.15,0.01-0.29,0.01-0.43,0.02l0,0C286.27,411.84,286.4,411.83,286.55,411.83L286.55,411.83z"
		/>
	<path class="st0" d="M286.55,411.83c-0.15,0.01-0.29,0.01-0.43,0.02l0,0C286.27,411.84,286.4,411.83,286.55,411.83L286.55,411.83z"
		/>
	<path class="st0" d="M286.55,411.83c-0.15,0.01-0.29,0.01-0.43,0.02l0,0C286.27,411.84,286.4,411.83,286.55,411.83L286.55,411.83z"
		/>
	<path class="st0" d="M316.86,373.83c-0.25,0.34-0.52,0.65-0.81,0.94c-0.67,0.67-1.48,1.23-2.4,1.68l0.32,0.45
		c1.36-0.69,2.49-1.59,3.33-2.75c1.64-2.23,2.62-5.1,2.94-8.52l-0.64,0.82C319.23,369.39,318.32,371.86,316.86,373.83z"/>
	<path class="st0" d="M316.86,373.83c-0.25,0.34-0.52,0.65-0.81,0.94c-0.67,0.67-1.48,1.23-2.4,1.68l0.32,0.45
		c1.36-0.69,2.49-1.59,3.33-2.75c1.64-2.23,2.62-5.1,2.94-8.52l-0.64,0.82C319.23,369.39,318.32,371.86,316.86,373.83z"/>
	<path class="st0" d="M323.95,390.9l0.66,0.92"/>
	<path class="st0" d="M327.95,362.1c0,3.34-1.07,6.38-3.18,9.04c-2.12,2.67-5.55,4.75-10.2,6.19l-0.25,0.08l0.41,0.57v-0.12
		c4.78-1.47,8.27-3.6,10.47-6.37c1.1-1.39,1.92-2.86,2.47-4.43c0.55-1.56,0.82-3.22,0.82-4.96c0-2.04-0.38-3.9-1.14-5.59l-0.39,0.5
		C327.61,358.56,327.95,360.26,327.95,362.1z"/>
	<path class="st0" d="M327.95,362.1c0,3.34-1.07,6.38-3.18,9.04c-2.12,2.67-5.55,4.75-10.2,6.19l-0.25,0.08l0.41,0.57v-0.12
		c4.78-1.47,8.27-3.6,10.47-6.37c1.1-1.39,1.92-2.86,2.47-4.43c0.55-1.56,0.82-3.22,0.82-4.96c0-2.04-0.38-3.9-1.14-5.59l-0.39,0.5
		C327.61,358.56,327.95,360.26,327.95,362.1z"/>
	<path class="st0" d="M309.39,348.4L309.39,348.4c4.04,0,7.5,0.59,10.28,1.75c2.52,1.05,4.48,2.5,5.85,4.31
		c0.08-0.24,0.13-0.45,0.18-0.67c-0.8-0.98-1.76-1.85-2.9-2.6c-0.58-0.39-1.21-0.75-1.88-1.07c-0.34-0.16-0.68-0.32-1.04-0.47
		c-1.43-0.6-3.02-1.05-4.77-1.34c-1.75-0.3-3.65-0.45-5.72-0.45l0,0V348.4z"/>
	<path class="st0" d="M309.39,348.4L309.39,348.4c4.04,0,7.5,0.59,10.28,1.75c2.52,1.05,4.48,2.5,5.85,4.31
		c0.08-0.24,0.13-0.45,0.18-0.67c-0.8-0.98-1.76-1.85-2.9-2.6c-0.58-0.39-1.21-0.75-1.88-1.07c-0.34-0.16-0.68-0.32-1.04-0.47
		c-1.43-0.6-3.02-1.05-4.77-1.34c-1.75-0.3-3.65-0.45-5.72-0.45l0,0V348.4z"/>
	<path class="st0" d="M318.8,406.81c-0.79,0.58-1.68,1.08-2.65,1.49c-2.43,1.03-5.41,1.55-8.94,1.55l0,0l0,0
		c-0.97,0-1.82-0.05-2.55-0.14c-0.1-0.01-0.17-0.03-0.27-0.05c0.07,0.03,0.12,0.07,0.19,0.1c0.76,0.3,1.88,0.5,3.35,0.62
		c7.31-0.15,12.25-2.59,14.78-7.28l-0.34-0.52C321.51,404.29,320.32,405.71,318.8,406.81z"/>
	<path class="st0" d="M318.8,406.81c-0.79,0.58-1.68,1.08-2.65,1.49c-2.43,1.03-5.41,1.55-8.94,1.55l0,0l0,0
		c-0.97,0-1.82-0.05-2.55-0.14c-0.1-0.01-0.17-0.03-0.27-0.05c0.07,0.03,0.12,0.07,0.19,0.1c0.76,0.3,1.88,0.5,3.35,0.62
		c7.31-0.15,12.25-2.59,14.78-7.28l-0.34-0.52C321.51,404.29,320.32,405.71,318.8,406.81z"/>
	<path class="st0" d="M286.11,411.3c-0.32,0.02-0.63,0.03-0.92,0.05v-0.7c0.33-0.02,0.62-0.04,0.92-0.07v-0.1
		c0.72-0.03,1.35-0.08,1.94-0.14c0.6-0.11,1.13-0.24,1.55-0.41c1.14-0.44,1.93-1.27,2.36-2.45c0.39-1.1,0.58-2.78,0.58-5.14v-44.96
		c0-2.36-0.19-4.04-0.58-5.14c-0.38-1.07-1.08-1.83-2.06-2.3c-0.96-0.22-2.21-0.36-3.78-0.42v-0.38c-0.3-0.02-0.59-0.05-0.92-0.07
		v-0.7c0.29,0.02,0.6,0.03,0.92,0.05v-0.55c-0.16-0.01-0.33-0.01-0.48-0.02c-0.35-0.02-0.68-0.04-1-0.06v1.81
		c2.18,0.09,3.77,0.33,4.76,0.71c0.99,0.38,1.67,1.09,2.04,2.12c0.28,0.77,0.45,1.9,0.52,3.37c0.02,0.49,0.03,1.02,0.03,1.59v44.96
		c0,1.42-0.07,2.6-0.22,3.53c-0.09,0.56-0.2,1.04-0.34,1.42c-0.18,0.52-0.45,0.95-0.79,1.31c-0.34,0.35-0.76,0.63-1.25,0.82
		c-0.25,0.1-0.53,0.18-0.85,0.26c-0.64,0.15-1.44,0.27-2.38,0.35c-0.47,0.04-0.98,0.07-1.53,0.09v1.81
		c0.45-0.03,0.95-0.06,1.47-0.08L286.11,411.3L286.11,411.3z"/>
	<path class="st0" d="M286.11,411.3c-0.32,0.02-0.63,0.03-0.92,0.05v-0.7c0.33-0.02,0.62-0.04,0.92-0.07v-0.1
		c0.72-0.03,1.35-0.08,1.94-0.14c0.6-0.11,1.13-0.24,1.55-0.41c1.14-0.44,1.93-1.27,2.36-2.45c0.39-1.1,0.58-2.78,0.58-5.14v-44.96
		c0-2.36-0.19-4.04-0.58-5.14c-0.38-1.07-1.08-1.83-2.06-2.3c-0.96-0.22-2.21-0.36-3.78-0.42v-0.38c-0.3-0.02-0.59-0.05-0.92-0.07
		v-0.7c0.29,0.02,0.6,0.03,0.92,0.05v-0.55c-0.16-0.01-0.33-0.01-0.48-0.02c-0.35-0.02-0.68-0.04-1-0.06v1.81
		c2.18,0.09,3.77,0.33,4.76,0.71c0.99,0.38,1.67,1.09,2.04,2.12c0.28,0.77,0.45,1.9,0.52,3.37c0.02,0.49,0.03,1.02,0.03,1.59v44.96
		c0,1.42-0.07,2.6-0.22,3.53c-0.09,0.56-0.2,1.04-0.34,1.42c-0.18,0.52-0.45,0.95-0.79,1.31c-0.34,0.35-0.76,0.63-1.25,0.82
		c-0.25,0.1-0.53,0.18-0.85,0.26c-0.64,0.15-1.44,0.27-2.38,0.35c-0.47,0.04-0.98,0.07-1.53,0.09v1.81
		c0.45-0.03,0.95-0.06,1.47-0.08L286.11,411.3L286.11,411.3z"/>
	<path class="st0" d="M325.61,407.65c-0.86,0.57-1.78,1.09-2.79,1.55c-3.19,1.45-7.01,2.19-11.36,2.19l-2.09-0.04v0.55l2.08,0.04
		c0.56,0,1.1-0.01,1.64-0.03c1.62-0.07,3.15-0.24,4.6-0.52c0.48-0.09,0.96-0.2,1.42-0.31c0.93-0.23,1.82-0.51,2.68-0.84
		c0.43-0.16,0.85-0.34,1.26-0.52c0.41-0.19,0.81-0.38,1.19-0.59c0.54-0.28,1.04-0.59,1.53-0.91
		C325.76,408.03,325.7,407.84,325.61,407.65z"/>
	<path class="st0" d="M325.61,407.65c-0.86,0.57-1.78,1.09-2.79,1.55c-3.19,1.45-7.01,2.19-11.36,2.19l-2.09-0.04v0.55l2.08,0.04
		c0.56,0,1.1-0.01,1.64-0.03c1.62-0.07,3.15-0.24,4.6-0.52c0.48-0.09,0.96-0.2,1.42-0.31c0.93-0.23,1.82-0.51,2.68-0.84
		c0.43-0.16,0.85-0.34,1.26-0.52c0.41-0.19,0.81-0.38,1.19-0.59c0.54-0.28,1.04-0.59,1.53-0.91
		C325.76,408.03,325.7,407.84,325.61,407.65z"/>
	<path class="st0" d="M307.82,349.6c0.85,0.02,1.66,0.08,2.41,0.19c2.4,0.35,4.32,1.13,5.77,2.35c0.29,0.24,0.56,0.5,0.81,0.78
		c2.01,2.23,3.01,5.61,3.01,10.16c0,0.05,0,0.1,0,0.15l0.54-0.69c-0.08-4.39-1.13-7.76-3.13-9.99c-1.74-1.93-4.39-3.07-7.84-3.41
		v0.36C308.82,349.52,308.3,349.56,307.82,349.6z"/>
	<path class="st0" d="M307.82,349.6c0.85,0.02,1.66,0.08,2.41,0.19c2.4,0.35,4.32,1.13,5.77,2.35c0.29,0.24,0.56,0.5,0.81,0.78
		c2.01,2.23,3.01,5.61,3.01,10.16c0,0.05,0,0.1,0,0.15l0.54-0.69c-0.08-4.39-1.13-7.76-3.13-9.99c-1.74-1.93-4.39-3.07-7.84-3.41
		v0.36C308.82,349.52,308.3,349.56,307.82,349.6z"/>
	<path class="st0" d="M314.79,378.04l0.45,0.63c6.21,0.9,10.71,2.73,13.36,5.48c2.72,2.82,4.09,6.25,4.09,10.22
		c0,2.46-0.48,4.73-1.42,6.79l0.36,0.51c0.55-1.14,0.97-2.34,1.24-3.61c0.25-1.18,0.37-2.41,0.37-3.69c0-0.52-0.02-1.02-0.07-1.52
		c-0.18-1.99-0.71-3.83-1.59-5.52c-0.66-1.27-1.53-2.45-2.59-3.55C326.17,380.84,321.42,378.93,314.79,378.04z"/>
	<path class="st0" d="M314.79,378.04l0.45,0.63c6.21,0.9,10.71,2.73,13.36,5.48c2.72,2.82,4.09,6.25,4.09,10.22
		c0,2.46-0.48,4.73-1.42,6.79l0.36,0.51c0.55-1.14,0.97-2.34,1.24-3.61c0.25-1.18,0.37-2.41,0.37-3.69c0-0.52-0.02-1.02-0.07-1.52
		c-0.18-1.99-0.71-3.83-1.59-5.52c-0.66-1.27-1.53-2.45-2.59-3.55C326.17,380.84,321.42,378.93,314.79,378.04z"/>
	<polygon class="st0" points="314.18,378.52 314.64,378.58 314.18,377.94 314.18,378.03 	"/>
	<polygon class="st0" points="314.18,378.52 314.64,378.58 314.18,377.94 314.18,378.03 	"/>
	<polygon class="st0" points="314.18,378.52 314.64,378.58 314.18,377.94 314.18,378.03 	"/>
	<path class="st0" d="M330.61,403.48c0.3-0.45,0.56-0.92,0.81-1.39l-0.36-0.51c-0.27,0.55-0.57,1.08-0.91,1.59
		c-1.08,1.63-2.48,3.04-4.16,4.23c0.08,0.19,0.14,0.37,0.19,0.54c0.08-0.06,0.17-0.11,0.26-0.17
		C328.11,406.57,329.51,405.14,330.61,403.48z"/>
	<path class="st0" d="M330.61,403.48c0.3-0.45,0.56-0.92,0.81-1.39l-0.36-0.51c-0.27,0.55-0.57,1.08-0.91,1.59
		c-1.08,1.63-2.48,3.04-4.16,4.23c0.08,0.19,0.14,0.37,0.19,0.54c0.08-0.06,0.17-0.11,0.26-0.17
		C328.11,406.57,329.51,405.14,330.61,403.48z"/>
	<path class="st0" d="M330.61,403.48c0.3-0.45,0.56-0.92,0.81-1.39l-0.36-0.51c-0.27,0.55-0.57,1.08-0.91,1.59
		c-1.08,1.63-2.48,3.04-4.16,4.23c0.08,0.19,0.14,0.37,0.19,0.54c0.08-0.06,0.17-0.11,0.26-0.17
		C328.11,406.57,329.51,405.14,330.61,403.48z"/>
	<path class="st0" d="M305.54,348.45l3.42-0.04v-0.28c-2.75,0.16-6.5,0.24-11.16,0.24c-4.94,0-8.72-0.08-11.25-0.24v0.29
		c2.36,0.11,5.42,0.16,9.16,0.16C296.76,348.58,299.98,348.54,305.54,348.45z"/>
	<path class="st0" d="M305.54,348.45l3.42-0.04v-0.28c-2.75,0.16-6.5,0.24-11.16,0.24c-4.94,0-8.72-0.08-11.25-0.24v0.29
		c2.36,0.11,5.42,0.16,9.16,0.16C296.76,348.58,299.98,348.54,305.54,348.45z"/>
	<path class="st0" d="M305.54,348.45l3.42-0.04v-0.28c-2.75,0.16-6.5,0.24-11.16,0.24c-4.94,0-8.72-0.08-11.25-0.24v0.29
		c2.36,0.11,5.42,0.16,9.16,0.16C296.76,348.58,299.98,348.54,305.54,348.45z"/>
	<path class="st0" d="M319.7,365.64l0.62-0.8c0.03-0.53,0.05-1.07,0.05-1.63l-0.57,0.73C319.79,364.53,319.76,365.09,319.7,365.64z"
		/>
	<path class="st0" d="M319.7,365.64l0.62-0.8c0.03-0.53,0.05-1.07,0.05-1.63l-0.57,0.73C319.79,364.53,319.76,365.09,319.7,365.64z"
		/>
	<path class="st0" d="M319.7,365.64l0.62-0.8c0.03-0.53,0.05-1.07,0.05-1.63l-0.57,0.73C319.79,364.53,319.76,365.09,319.7,365.64z"
		/>
	<path class="st0" d="M326.79,356.56l0.37-0.48c-0.1-0.21-0.2-0.42-0.32-0.62c-0.16-0.28-0.33-0.55-0.51-0.82
		c-0.1-0.14-0.21-0.28-0.31-0.42c-0.06,0.21-0.13,0.42-0.21,0.64c0.02,0.03,0.04,0.06,0.06,0.09
		C326.23,355.46,326.52,356,326.79,356.56z"/>
	<path class="st0" d="M326.79,356.56l0.37-0.48c-0.1-0.21-0.2-0.42-0.32-0.62c-0.16-0.28-0.33-0.55-0.51-0.82
		c-0.1-0.14-0.21-0.28-0.31-0.42c-0.06,0.21-0.13,0.42-0.21,0.64c0.02,0.03,0.04,0.06,0.06,0.09
		C326.23,355.46,326.52,356,326.79,356.56z"/>
	<path class="st0" d="M326.79,356.56l0.37-0.48c-0.1-0.21-0.2-0.42-0.32-0.62c-0.16-0.28-0.33-0.55-0.51-0.82
		c-0.1-0.14-0.21-0.28-0.31-0.42c-0.06,0.21-0.13,0.42-0.21,0.64c0.02,0.03,0.04,0.06,0.06,0.09
		C326.23,355.46,326.52,356,326.79,356.56z"/>
	<path class="st0" d="M324.67,392.64l-0.62-0.86c0.07,0.7,0.11,1.43,0.11,2.19c0,3.21-0.53,5.93-1.57,8.17l0.36,0.54
		c1.17-2.37,1.76-5.27,1.76-8.71C324.71,393.51,324.7,393.07,324.67,392.64z"/>
	<path class="st0" d="M324.67,392.64l-0.62-0.86c0.07,0.7,0.11,1.43,0.11,2.19c0,3.21-0.53,5.93-1.57,8.17l0.36,0.54
		c1.17-2.37,1.76-5.27,1.76-8.71C324.71,393.51,324.7,393.07,324.67,392.64z"/>
	<path class="st0" d="M324.67,392.64l-0.62-0.86c0.07,0.7,0.11,1.43,0.11,2.19c0,3.21-0.53,5.93-1.57,8.17l0.36,0.54
		c1.17-2.37,1.76-5.27,1.76-8.71C324.71,393.51,324.7,393.07,324.67,392.64z"/>
	<path class="st0" d="M303.2,409.38c-0.11-0.04-0.23-0.06-0.33-0.1c-0.13-0.05-0.23-0.12-0.35-0.19c-0.53-0.29-0.97-0.69-1.28-1.22
		c-0.13-0.22-0.23-0.46-0.32-0.71c-0.35-1.03-0.53-2.64-0.53-4.82v-22.92l0,0h1.16v-0.23l0.45,0.03c0.68,0.04,1.3,0.11,1.87,0.2H308
		c3.19,0,5.88,0.42,8.09,1.22l-0.55-0.78c-2.13-0.66-4.64-0.99-7.53-0.99h-7.61h-0.55v0.55v22.92c0,2.26,0.18,3.9,0.56,5
		c0.41,1.19,1.17,2.01,2.26,2.46c0.56,0.23,1.29,0.39,2.15,0.49c-0.13-0.04-0.27-0.08-0.38-0.12
		C303.96,409.97,303.55,409.7,303.2,409.38z"/>
	<path class="st0" d="M303.2,409.38c-0.11-0.04-0.23-0.06-0.33-0.1c-0.13-0.05-0.23-0.12-0.35-0.19c-0.53-0.29-0.97-0.69-1.28-1.22
		c-0.13-0.22-0.23-0.46-0.32-0.71c-0.35-1.03-0.53-2.64-0.53-4.82v-22.92l0,0h1.16v-0.23l0.45,0.03c0.68,0.04,1.3,0.11,1.87,0.2H308
		c3.19,0,5.88,0.42,8.09,1.22l-0.55-0.78c-2.13-0.66-4.64-0.99-7.53-0.99h-7.61h-0.55v0.55v22.92c0,2.26,0.18,3.9,0.56,5
		c0.41,1.19,1.17,2.01,2.26,2.46c0.56,0.23,1.29,0.39,2.15,0.49c-0.13-0.04-0.27-0.08-0.38-0.12
		C303.96,409.97,303.55,409.7,303.2,409.38z"/>
	<path class="st0" d="M303.2,409.38c-0.11-0.04-0.23-0.06-0.33-0.1c-0.13-0.05-0.23-0.12-0.35-0.19c-0.53-0.29-0.97-0.69-1.28-1.22
		c-0.13-0.22-0.23-0.46-0.32-0.71c-0.35-1.03-0.53-2.64-0.53-4.82v-22.92l0,0h1.16v-0.23l0.45,0.03c0.68,0.04,1.3,0.11,1.87,0.2H308
		c3.19,0,5.88,0.42,8.09,1.22l-0.55-0.78c-2.13-0.66-4.64-0.99-7.53-0.99h-7.61h-0.55v0.55v22.92c0,2.26,0.18,3.9,0.56,5
		c0.41,1.19,1.17,2.01,2.26,2.46c0.56,0.23,1.29,0.39,2.15,0.49c-0.13-0.04-0.27-0.08-0.38-0.12
		C303.96,409.97,303.55,409.7,303.2,409.38z"/>
	<path class="st0" d="M287.38,411.79c2.52-0.13,6.01-0.19,10.42-0.19c4.66,0,8.41,0.08,11.16,0.24v-0.51l-1.63-0.03
		c-3.89-0.12-7.74-0.18-11.43-0.18c-3.82,0-6.94,0.05-9.34,0.16v0.55c0.08,0,0.15-0.01,0.23-0.01
		C286.96,411.81,287.17,411.8,287.38,411.79z"/>
	<path class="st0" d="M287.38,411.79c2.52-0.13,6.01-0.19,10.42-0.19c4.66,0,8.41,0.08,11.16,0.24v-0.51l-1.63-0.03
		c-3.89-0.12-7.74-0.18-11.43-0.18c-3.82,0-6.94,0.05-9.34,0.16v0.55c0.08,0,0.15-0.01,0.23-0.01
		C286.96,411.81,287.17,411.8,287.38,411.79z"/>
	<path class="st0" d="M287.38,411.79c2.52-0.13,6.01-0.19,10.42-0.19c4.66,0,8.41,0.08,11.16,0.24v-0.51l-1.63-0.03
		c-3.89-0.12-7.74-0.18-11.43-0.18c-3.82,0-6.94,0.05-9.34,0.16v0.55c0.08,0,0.15-0.01,0.23-0.01
		C286.96,411.81,287.17,411.8,287.38,411.79z"/>
	<path class="st0" d="M302.65,349.72c-1.09,0.49-1.84,1.37-2.24,2.61c-0.38,1.16-0.56,2.81-0.56,5.04v20.49v0.55h0.55h6.11
		c2.81,0,5.16-0.45,7.07-1.32l-0.32-0.45c-0.16,0.07-0.3,0.15-0.46,0.21c-0.43,0.17-0.89,0.31-1.36,0.44
		c-1.43,0.38-3.07,0.57-4.92,0.57l0,0h-1.54c-0.94,0.21-1.93,0.34-2.97,0.37l-0.44,0.01v-0.39h-1.16v-20.49
		c0-2.15,0.18-3.78,0.53-4.87c0.18-0.55,0.43-1.01,0.75-1.39c0.32-0.38,0.72-0.68,1.19-0.89c0.24-0.11,0.5-0.2,0.8-0.28
		c0.31-0.08,0.66-0.15,1.04-0.21c0.97-0.33,2.35-0.54,4.21-0.64c-0.58-0.04-1.17-0.07-1.8-0.07
		C305.14,349.03,303.67,349.25,302.65,349.72z"/>
	<path class="st0" d="M302.65,349.72c-1.09,0.49-1.84,1.37-2.24,2.61c-0.38,1.16-0.56,2.81-0.56,5.04v20.49v0.55h0.55h6.11
		c2.81,0,5.16-0.45,7.07-1.32l-0.32-0.45c-0.16,0.07-0.3,0.15-0.46,0.21c-0.43,0.17-0.89,0.31-1.36,0.44
		c-1.43,0.38-3.07,0.57-4.92,0.57l0,0h-1.54c-0.94,0.21-1.93,0.34-2.97,0.37l-0.44,0.01v-0.39h-1.16v-20.49
		c0-2.15,0.18-3.78,0.53-4.87c0.18-0.55,0.43-1.01,0.75-1.39c0.32-0.38,0.72-0.68,1.19-0.89c0.24-0.11,0.5-0.2,0.8-0.28
		c0.31-0.08,0.66-0.15,1.04-0.21c0.97-0.33,2.35-0.54,4.21-0.64c-0.58-0.04-1.17-0.07-1.8-0.07
		C305.14,349.03,303.67,349.25,302.65,349.72z"/>
	<path class="st0" d="M302.65,349.72c-1.09,0.49-1.84,1.37-2.24,2.61c-0.38,1.16-0.56,2.81-0.56,5.04v20.49v0.55h0.55h6.11
		c2.81,0,5.16-0.45,7.07-1.32l-0.32-0.45c-0.16,0.07-0.3,0.15-0.46,0.21c-0.43,0.17-0.89,0.31-1.36,0.44
		c-1.43,0.38-3.07,0.57-4.92,0.57l0,0h-1.54c-0.94,0.21-1.93,0.34-2.97,0.37l-0.44,0.01v-0.39h-1.16v-20.49
		c0-2.15,0.18-3.78,0.53-4.87c0.18-0.55,0.43-1.01,0.75-1.39c0.32-0.38,0.72-0.68,1.19-0.89c0.24-0.11,0.5-0.2,0.8-0.28
		c0.31-0.08,0.66-0.15,1.04-0.21c0.97-0.33,2.35-0.54,4.21-0.64c-0.58-0.04-1.17-0.07-1.8-0.07
		C305.14,349.03,303.67,349.25,302.65,349.72z"/>
	<path class="st0" d="M325.82,354.87c0.08-0.22,0.15-0.44,0.21-0.64c-0.09-0.12-0.17-0.24-0.27-0.36c-0.02-0.03-0.04-0.05-0.06-0.07
		c-0.05,0.22-0.1,0.43-0.18,0.67C325.61,354.59,325.71,354.73,325.82,354.87z"/>
	<path class="st0" d="M325.82,354.87c0.08-0.22,0.15-0.44,0.21-0.64c-0.09-0.12-0.17-0.24-0.27-0.36c-0.02-0.03-0.04-0.05-0.06-0.07
		c-0.05,0.22-0.1,0.43-0.18,0.67C325.61,354.59,325.71,354.73,325.82,354.87z"/>
	<path class="st0" d="M325.82,354.87c0.08-0.22,0.15-0.44,0.21-0.64c-0.09-0.12-0.17-0.24-0.27-0.36c-0.02-0.03-0.04-0.05-0.06-0.07
		c-0.05,0.22-0.1,0.43-0.18,0.67C325.61,354.59,325.71,354.73,325.82,354.87z"/>
	<path class="st0" d="M325.82,354.87c0.08-0.22,0.15-0.44,0.21-0.64c-0.09-0.12-0.17-0.24-0.27-0.36c-0.02-0.03-0.04-0.05-0.06-0.07
		c-0.05,0.22-0.1,0.43-0.18,0.67C325.61,354.59,325.71,354.73,325.82,354.87z"/>
	<path class="st0" d="M325.61,407.65c0.08,0.2,0.13,0.38,0.17,0.55c0.13-0.08,0.26-0.17,0.38-0.25c-0.04-0.17-0.1-0.35-0.19-0.54
		C325.86,407.49,325.73,407.57,325.61,407.65z"/>
	<path class="st0" d="M325.61,407.65c0.08,0.2,0.13,0.38,0.17,0.55c0.13-0.08,0.26-0.17,0.38-0.25c-0.04-0.17-0.1-0.35-0.19-0.54
		C325.86,407.49,325.73,407.57,325.61,407.65z"/>
	<path class="st0" d="M325.61,407.65c0.08,0.2,0.13,0.38,0.17,0.55c0.13-0.08,0.26-0.17,0.38-0.25c-0.04-0.17-0.1-0.35-0.19-0.54
		C325.86,407.49,325.73,407.57,325.61,407.65z"/>
	<path class="st0" d="M325.61,407.65c0.08,0.2,0.13,0.38,0.17,0.55c0.13-0.08,0.26-0.17,0.38-0.25c-0.04-0.17-0.1-0.35-0.19-0.54
		C325.86,407.49,325.73,407.57,325.61,407.65z"/>
	<path class="st0" d="M322.38,402.58l0.34,0.52c0.08-0.14,0.16-0.27,0.24-0.42l-0.36-0.54
		C322.52,402.28,322.45,402.43,322.38,402.58z"/>
	<path class="st0" d="M322.38,402.58l0.34,0.52c0.08-0.14,0.16-0.27,0.24-0.42l-0.36-0.54
		C322.52,402.28,322.45,402.43,322.38,402.58z"/>
	<path class="st0" d="M322.38,402.58l0.34,0.52c0.08-0.14,0.16-0.27,0.24-0.42l-0.36-0.54
		C322.52,402.28,322.45,402.43,322.38,402.58z"/>
	<path class="st0" d="M322.38,402.58l0.34,0.52c0.08-0.14,0.16-0.27,0.24-0.42l-0.36-0.54
		C322.52,402.28,322.45,402.43,322.38,402.58z"/>
	<path class="st0" d="M286.11,349.12v0.38c1.57,0.06,2.83,0.21,3.78,0.42c-0.1-0.05-0.19-0.11-0.3-0.15
		C288.79,349.46,287.62,349.25,286.11,349.12z"/>
	<path class="st0" d="M286.11,349.12v0.38c1.57,0.06,2.83,0.21,3.78,0.42c-0.1-0.05-0.19-0.11-0.3-0.15
		C288.79,349.46,287.62,349.25,286.11,349.12z"/>
	<path class="st0" d="M286.11,349.12v0.38c1.57,0.06,2.83,0.21,3.78,0.42c-0.1-0.05-0.19-0.11-0.3-0.15
		C288.79,349.46,287.62,349.25,286.11,349.12z"/>
	<path class="st0" d="M286.11,349.12v0.38c1.57,0.06,2.83,0.21,3.78,0.42c-0.1-0.05-0.19-0.11-0.3-0.15
		C288.79,349.46,287.62,349.25,286.11,349.12z"/>
	<path class="st0" d="M286.55,348.13c2.53,0.16,6.31,0.24,11.25,0.24c4.66,0,8.41-0.08,11.16-0.24v0.28h0.43v-0.55l-3.85,0.04
		c-5.49,0.09-8.76,0.13-9.82,0.13c-3.04,0-5.62-0.03-7.74-0.1c-0.66-0.02-1.27-0.05-1.84-0.08v0.55c0.14,0.01,0.29,0.01,0.43,0.02
		v-0.29H286.55z"/>
	<path class="st0" d="M286.55,348.13c2.53,0.16,6.31,0.24,11.25,0.24c4.66,0,8.41-0.08,11.16-0.24v0.28h0.43v-0.55l-3.85,0.04
		c-5.49,0.09-8.76,0.13-9.82,0.13c-3.04,0-5.62-0.03-7.74-0.1c-0.66-0.02-1.27-0.05-1.84-0.08v0.55c0.14,0.01,0.29,0.01,0.43,0.02
		v-0.29H286.55z"/>
	<path class="st0" d="M286.55,348.13c2.53,0.16,6.31,0.24,11.25,0.24c4.66,0,8.41-0.08,11.16-0.24v0.28h0.43v-0.55l-3.85,0.04
		c-5.49,0.09-8.76,0.13-9.82,0.13c-3.04,0-5.62-0.03-7.74-0.1c-0.66-0.02-1.27-0.05-1.84-0.08v0.55c0.14,0.01,0.29,0.01,0.43,0.02
		v-0.29H286.55z"/>
	<path class="st0" d="M286.55,348.13c2.53,0.16,6.31,0.24,11.25,0.24c4.66,0,8.41-0.08,11.16-0.24v0.28h0.43v-0.55l-3.85,0.04
		c-5.49,0.09-8.76,0.13-9.82,0.13c-3.04,0-5.62-0.03-7.74-0.1c-0.66-0.02-1.27-0.05-1.84-0.08v0.55c0.14,0.01,0.29,0.01,0.43,0.02
		v-0.29H286.55z"/>
	<path class="st0" d="M308.95,411.84c-2.75-0.16-6.5-0.24-11.16-0.24c-4.41,0-7.9,0.07-10.42,0.19c0.62-0.02,1.28-0.04,1.99-0.06
		c0.47-0.01,0.96-0.02,1.46-0.03c1.01-0.02,2.1-0.03,3.26-0.03c0.58,0,1.18,0,1.8,0c1.86,0,3.74,0.01,5.64,0.04s3.83,0.07,5.78,0.13
		l2.08,0.04v-0.55l-0.43-0.01L308.95,411.84L308.95,411.84z"/>
	<path class="st0" d="M308.95,411.84c-2.75-0.16-6.5-0.24-11.16-0.24c-4.41,0-7.9,0.07-10.42,0.19c0.62-0.02,1.28-0.04,1.99-0.06
		c0.47-0.01,0.96-0.02,1.46-0.03c1.01-0.02,2.1-0.03,3.26-0.03c0.58,0,1.18,0,1.8,0c1.86,0,3.74,0.01,5.64,0.04s3.83,0.07,5.78,0.13
		l2.08,0.04v-0.55l-0.43-0.01L308.95,411.84L308.95,411.84z"/>
	<path class="st0" d="M308.95,411.84c-2.75-0.16-6.5-0.24-11.16-0.24c-4.41,0-7.9,0.07-10.42,0.19c0.62-0.02,1.28-0.04,1.99-0.06
		c0.47-0.01,0.96-0.02,1.46-0.03c1.01-0.02,2.1-0.03,3.26-0.03c0.58,0,1.18,0,1.8,0c1.86,0,3.74,0.01,5.64,0.04s3.83,0.07,5.78,0.13
		l2.08,0.04v-0.55l-0.43-0.01L308.95,411.84L308.95,411.84z"/>
	<path class="st0" d="M308.95,411.84c-2.75-0.16-6.5-0.24-11.16-0.24c-4.41,0-7.9,0.07-10.42,0.19c0.62-0.02,1.28-0.04,1.99-0.06
		c0.47-0.01,0.96-0.02,1.46-0.03c1.01-0.02,2.1-0.03,3.26-0.03c0.58,0,1.18,0,1.8,0c1.86,0,3.74,0.01,5.64,0.04s3.83,0.07,5.78,0.13
		l2.08,0.04v-0.55l-0.43-0.01L308.95,411.84L308.95,411.84z"/>
	<path class="st0" d="M286.11,410.47v0.1c0.73-0.06,1.38-0.14,1.94-0.25C287.46,410.39,286.83,410.44,286.11,410.47z"/>
	<path class="st0" d="M286.11,410.47v0.1c0.73-0.06,1.38-0.14,1.94-0.25C287.46,410.39,286.83,410.44,286.11,410.47z"/>
	<path class="st0" d="M286.11,410.47v0.1c0.73-0.06,1.38-0.14,1.94-0.25C287.46,410.39,286.83,410.44,286.11,410.47z"/>
	<path class="st0" d="M286.11,410.47v0.1c0.73-0.06,1.38-0.14,1.94-0.25C287.46,410.39,286.83,410.44,286.11,410.47z"/>
	<path class="st0" d="M314.18,377.86v0.09l0.45,0.63h0.03c0.2,0.03,0.37,0.06,0.57,0.09l-0.45-0.63c-0.02,0-0.03-0.01-0.05-0.01
		v-0.06l-0.41-0.57l-0.14,0.04V377.86z"/>
	<path class="st0" d="M314.18,377.86v0.09l0.45,0.63h0.03c0.2,0.03,0.37,0.06,0.57,0.09l-0.45-0.63c-0.02,0-0.03-0.01-0.05-0.01
		v-0.06l-0.41-0.57l-0.14,0.04V377.86z"/>
	<path class="st0" d="M314.18,377.86v0.09l0.45,0.63h0.03c0.2,0.03,0.37,0.06,0.57,0.09l-0.45-0.63c-0.02,0-0.03-0.01-0.05-0.01
		v-0.06l-0.41-0.57l-0.14,0.04V377.86z"/>
	<path class="st0" d="M314.18,377.86v0.09l0.45,0.63h0.03c0.2,0.03,0.37,0.06,0.57,0.09l-0.45-0.63c-0.02,0-0.03-0.01-0.05-0.01
		v-0.06l-0.41-0.57l-0.14,0.04V377.86z"/>
	<path class="st0" d="M304.4,409.66c-0.46-0.07-0.85-0.17-1.2-0.28c0.35,0.32,0.75,0.59,1.23,0.78c0.11,0.04,0.26,0.08,0.38,0.12
		c0.7,0.08,1.48,0.13,2.4,0.13c0.25,0,0.48-0.02,0.73-0.02c-1.47-0.12-2.59-0.33-3.35-0.62
		C304.52,409.73,304.46,409.69,304.4,409.66z"/>
	<path class="st0" d="M304.4,409.66c-0.46-0.07-0.85-0.17-1.2-0.28c0.35,0.32,0.75,0.59,1.23,0.78c0.11,0.04,0.26,0.08,0.38,0.12
		c0.7,0.08,1.48,0.13,2.4,0.13c0.25,0,0.48-0.02,0.73-0.02c-1.47-0.12-2.59-0.33-3.35-0.62
		C304.52,409.73,304.46,409.69,304.4,409.66z"/>
	<path class="st0" d="M304.4,409.66c-0.46-0.07-0.85-0.17-1.2-0.28c0.35,0.32,0.75,0.59,1.23,0.78c0.11,0.04,0.26,0.08,0.38,0.12
		c0.7,0.08,1.48,0.13,2.4,0.13c0.25,0,0.48-0.02,0.73-0.02c-1.47-0.12-2.59-0.33-3.35-0.62
		C304.52,409.73,304.46,409.69,304.4,409.66z"/>
	<path class="st0" d="M304.4,409.66c-0.46-0.07-0.85-0.17-1.2-0.28c0.35,0.32,0.75,0.59,1.23,0.78c0.11,0.04,0.26,0.08,0.38,0.12
		c0.7,0.08,1.48,0.13,2.4,0.13c0.25,0,0.48-0.02,0.73-0.02c-1.47-0.12-2.59-0.33-3.35-0.62
		C304.52,409.73,304.46,409.69,304.4,409.66z"/>
	<path class="st0" d="M316.82,380.89l-0.56-0.79c-0.24-0.08-0.46-0.18-0.71-0.25l0.55,0.78
		C316.35,380.71,316.58,380.79,316.82,380.89z"/>
	<path class="st0" d="M316.82,380.89l-0.56-0.79c-0.24-0.08-0.46-0.18-0.71-0.25l0.55,0.78
		C316.35,380.71,316.58,380.79,316.82,380.89z"/>
	<path class="st0" d="M316.82,380.89l-0.56-0.79c-0.24-0.08-0.46-0.18-0.71-0.25l0.55,0.78
		C316.35,380.71,316.58,380.79,316.82,380.89z"/>
	<path class="st0" d="M316.82,380.89l-0.56-0.79c-0.24-0.08-0.46-0.18-0.71-0.25l0.55,0.78
		C316.35,380.71,316.58,380.79,316.82,380.89z"/>
	<path class="st0" d="M313.26,376.63l0.32,0.45c0.13-0.06,0.27-0.12,0.39-0.18l-0.32-0.45
		C313.52,376.51,313.39,376.57,313.26,376.63z"/>
	<path class="st0" d="M313.26,376.63l0.32,0.45c0.13-0.06,0.27-0.12,0.39-0.18l-0.32-0.45
		C313.52,376.51,313.39,376.57,313.26,376.63z"/>
	<path class="st0" d="M313.26,376.63l0.32,0.45c0.13-0.06,0.27-0.12,0.39-0.18l-0.32-0.45
		C313.52,376.51,313.39,376.57,313.26,376.63z"/>
	<path class="st0" d="M313.26,376.63l0.32,0.45c0.13-0.06,0.27-0.12,0.39-0.18l-0.32-0.45
		C313.52,376.51,313.39,376.57,313.26,376.63z"/>
	<path class="st0" d="M331.42,402.09c0.07-0.14,0.15-0.29,0.22-0.43l-0.36-0.51c-0.07,0.15-0.14,0.29-0.22,0.43L331.42,402.09z"/>
	<path class="st0" d="M331.42,402.09c0.07-0.14,0.15-0.29,0.22-0.43l-0.36-0.51c-0.07,0.15-0.14,0.29-0.22,0.43L331.42,402.09z"/>
	<path class="st0" d="M331.42,402.09c0.07-0.14,0.15-0.29,0.22-0.43l-0.36-0.51c-0.07,0.15-0.14,0.29-0.22,0.43L331.42,402.09z"/>
	<path class="st0" d="M331.42,402.09c0.07-0.14,0.15-0.29,0.22-0.43l-0.36-0.51c-0.07,0.15-0.14,0.29-0.22,0.43L331.42,402.09z"/>
	<path class="st0" d="M301.55,378.24l0.44-0.01c1.04-0.04,2.03-0.17,2.97-0.37h-3.41V378.24z"/>
	<path class="st0" d="M301.55,378.24l0.44-0.01c1.04-0.04,2.03-0.17,2.97-0.37h-3.41V378.24z"/>
	<path class="st0" d="M301.55,378.24l0.44-0.01c1.04-0.04,2.03-0.17,2.97-0.37h-3.41V378.24z"/>
	<path class="st0" d="M301.55,378.24l0.44-0.01c1.04-0.04,2.03-0.17,2.97-0.37h-3.41V378.24z"/>
	<path class="st0" d="M326.79,356.56c0.07,0.15,0.13,0.3,0.19,0.45l0.39-0.5c-0.07-0.15-0.13-0.29-0.21-0.43L326.79,356.56z"/>
	<path class="st0" d="M326.79,356.56c0.07,0.15,0.13,0.3,0.19,0.45l0.39-0.5c-0.07-0.15-0.13-0.29-0.21-0.43L326.79,356.56z"/>
	<path class="st0" d="M326.79,356.56c0.07,0.15,0.13,0.3,0.19,0.45l0.39-0.5c-0.07-0.15-0.13-0.29-0.21-0.43L326.79,356.56z"/>
	<path class="st0" d="M326.79,356.56c0.07,0.15,0.13,0.3,0.19,0.45l0.39-0.5c-0.07-0.15-0.13-0.29-0.21-0.43L326.79,356.56z"/>
	<path class="st0" d="M319.61,366.45l0.64-0.82c0.02-0.26,0.05-0.52,0.07-0.79l-0.62,0.8C319.67,365.91,319.64,366.18,319.61,366.45
		z"/>
	<path class="st0" d="M319.61,366.45l0.64-0.82c0.02-0.26,0.05-0.52,0.07-0.79l-0.62,0.8C319.67,365.91,319.64,366.18,319.61,366.45
		z"/>
	<path class="st0" d="M319.61,366.45l0.64-0.82c0.02-0.26,0.05-0.52,0.07-0.79l-0.62,0.8C319.67,365.91,319.64,366.18,319.61,366.45
		z"/>
	<path class="st0" d="M319.61,366.45l0.64-0.82c0.02-0.26,0.05-0.52,0.07-0.79l-0.62,0.8C319.67,365.91,319.64,366.18,319.61,366.45
		z"/>
	<path class="st0" d="M302.01,379.2l-0.45-0.03v0.23h2.33C303.32,379.31,302.7,379.24,302.01,379.2z"/>
	<path class="st0" d="M302.01,379.2l-0.45-0.03v0.23h2.33C303.32,379.31,302.7,379.24,302.01,379.2z"/>
	<path class="st0" d="M302.01,379.2l-0.45-0.03v0.23h2.33C303.32,379.31,302.7,379.24,302.01,379.2z"/>
	<path class="st0" d="M302.01,379.2l-0.45-0.03v0.23h2.33C303.32,379.31,302.7,379.24,302.01,379.2z"/>
	<path class="st0" d="M286.11,411.3v0.55c0.14-0.01,0.28-0.01,0.43-0.02v-0.55C286.4,411.28,286.26,411.29,286.11,411.3z"/>
	<path class="st0" d="M286.11,411.3v0.55c0.14-0.01,0.28-0.01,0.43-0.02v-0.55C286.4,411.28,286.26,411.29,286.11,411.3z"/>
	<path class="st0" d="M286.11,411.3v0.55c0.14-0.01,0.28-0.01,0.43-0.02v-0.55C286.4,411.28,286.26,411.29,286.11,411.3z"/>
	<path class="st0" d="M286.11,411.3v0.55c0.14-0.01,0.28-0.01,0.43-0.02v-0.55C286.4,411.28,286.26,411.29,286.11,411.3z"/>
	<path class="st0" d="M324.05,391.77l0.62,0.86c-0.02-0.28-0.03-0.55-0.06-0.82l-0.66-0.92
		C323.99,391.18,324.02,391.48,324.05,391.77z"/>
	<path class="st0" d="M324.05,391.77l0.62,0.86c-0.02-0.28-0.03-0.55-0.06-0.82l-0.66-0.92
		C323.99,391.18,324.02,391.48,324.05,391.77z"/>
	<path class="st0" d="M324.05,391.77l0.62,0.86c-0.02-0.28-0.03-0.55-0.06-0.82l-0.66-0.92
		C323.99,391.18,324.02,391.48,324.05,391.77z"/>
	<path class="st0" d="M324.05,391.77l0.62,0.86c-0.02-0.28-0.03-0.55-0.06-0.82l-0.66-0.92
		C323.99,391.18,324.02,391.48,324.05,391.77z"/>
	<path class="st0" d="M319.8,363.95l0.57-0.73c0-0.05,0-0.09,0-0.14c0-0.18-0.01-0.36-0.02-0.54l-0.54,0.69
		C319.82,363.47,319.82,363.71,319.8,363.95z"/>
	<path class="st0" d="M319.8,363.95l0.57-0.73c0-0.05,0-0.09,0-0.14c0-0.18-0.01-0.36-0.02-0.54l-0.54,0.69
		C319.82,363.47,319.82,363.71,319.8,363.95z"/>
	<path class="st0" d="M319.8,363.95l0.57-0.73c0-0.05,0-0.09,0-0.14c0-0.18-0.01-0.36-0.02-0.54l-0.54,0.69
		C319.82,363.47,319.82,363.71,319.8,363.95z"/>
	<path class="st0" d="M319.8,363.95l0.57-0.73c0-0.05,0-0.09,0-0.14c0-0.18-0.01-0.36-0.02-0.54l-0.54,0.69
		C319.82,363.47,319.82,363.71,319.8,363.95z"/>
	<path class="st0" d="M305.79,349.62c0.41-0.03,0.86-0.04,1.33-0.04c0.24,0,0.46,0.02,0.7,0.02c0.48-0.04,1-0.07,1.56-0.1v-0.36
		c-0.15-0.02-0.3-0.04-0.46-0.05c-1.87,0.1-3.24,0.31-4.21,0.64C305.04,349.68,305.4,349.64,305.79,349.62z"/>
	<path class="st0" d="M305.79,349.62c0.41-0.03,0.86-0.04,1.33-0.04c0.24,0,0.46,0.02,0.7,0.02c0.48-0.04,1-0.07,1.56-0.1v-0.36
		c-0.15-0.02-0.3-0.04-0.46-0.05c-1.87,0.1-3.24,0.31-4.21,0.64C305.04,349.68,305.4,349.64,305.79,349.62z"/>
	<path class="st0" d="M305.79,349.62c0.41-0.03,0.86-0.04,1.33-0.04c0.24,0,0.46,0.02,0.7,0.02c0.48-0.04,1-0.07,1.56-0.1v-0.36
		c-0.15-0.02-0.3-0.04-0.46-0.05c-1.87,0.1-3.24,0.31-4.21,0.64C305.04,349.68,305.4,349.64,305.79,349.62z"/>
	<path class="st0" d="M305.79,349.62c0.41-0.03,0.86-0.04,1.33-0.04c0.24,0,0.46,0.02,0.7,0.02c0.48-0.04,1-0.07,1.56-0.1v-0.36
		c-0.15-0.02-0.3-0.04-0.46-0.05c-1.87,0.1-3.24,0.31-4.21,0.64C305.04,349.68,305.4,349.64,305.79,349.62z"/>
</g>
</svg>
